# This file uses centimeters as units for non-parametric coordinates.

mtllib Box2.mtl
g default
v -100.000000 0.002762 101.111031
v -60.000000 0.002762 100.000000
v -20.000000 0.002762 97.777939
v 20.000000 0.002762 101.333237
v 60.000000 0.002762 98.091904
v 100.000000 0.002762 96.605766
v -104.428711 40.002762 101.111031
v -62.657227 40.002762 100.000000
v -20.885742 40.002762 97.777939
v 20.885742 40.002762 101.333237
v 62.657227 40.002762 95.756546
v 104.428711 40.002762 96.605766
v -103.156372 80.002762 101.111031
v -61.893822 80.002762 100.088882
v -20.631275 80.002762 97.777939
v 20.631275 80.002762 101.333237
v 61.893822 80.002762 95.756546
v 103.156372 80.002762 95.544243
v -95.579239 120.002762 101.111031
v -57.347546 118.960770 100.000000
v -19.115849 120.098862 97.777939
v 19.115849 120.002762 101.333237
v 55.725842 120.002762 95.756546
v 93.957535 120.002762 96.605766
v -99.342232 160.464722 101.111031
v -59.521065 154.392258 100.222206
v -19.823801 155.537872 97.777939
v 19.823801 157.872559 101.333237
v 59.560844 157.746857 95.756546
v 99.188072 160.163132 95.544243
v -98.758438 202.187164 101.111031
v -59.776772 192.241119 100.222206
v -20.000000 193.422882 97.777939
v 20.000000 197.872559 101.333237
v 59.651814 197.229797 95.756546
v 99.549934 200.790375 95.544243
v -98.758438 202.187164 60.666618
v -59.776772 192.241119 60.133324
v -20.000000 193.422882 58.666763
v 20.000000 197.872559 60.799942
v 59.651814 197.229797 57.453930
v 99.549934 200.790375 57.326546
v -98.758438 202.187164 20.222206
v -59.776772 192.241119 20.044441
v -20.000000 193.422882 19.555588
v 20.000000 197.872559 20.266647
v 59.651814 197.229797 19.151310
v 99.549934 200.790375 19.108849
v -98.758438 202.187164 -20.222206
v -59.866062 192.254974 -20.044441
v -20.000000 193.422882 -19.555588
v 20.000000 197.872559 -20.266647
v 59.651814 197.229797 -19.151310
v 99.626183 198.661530 -19.108849
v -98.758438 202.187164 -60.666618
v -60.000000 192.275772 -60.133324
v -20.000000 193.422882 -58.666763
v 20.000000 197.872559 -60.799942
v 59.651814 197.229797 -57.453930
v 99.626183 198.661530 -57.326546
v -98.758438 202.187164 -101.111031
v -60.000000 192.275772 -100.222206
v -20.000000 193.422882 -97.777939
v 20.000000 197.872559 -101.333237
v 59.651814 197.229797 -95.756546
v 99.626183 198.661530 -95.544243
v -95.844566 160.464722 -101.111031
v -57.372807 153.637787 -100.222206
v -19.124268 155.537872 -97.777939
v 19.124268 157.872559 -101.333237
v 57.462250 157.746857 -95.756546
v 95.705658 158.033203 -95.544243
v -95.158218 120.002762 -101.111031
v -57.094929 118.700272 -100.000000
v -19.031643 120.098862 -97.777939
v 19.031643 120.002762 -101.333237
v 53.040665 120.002762 -98.091904
v 91.103951 120.002762 -96.605766
v -100.000000 80.002762 -101.111031
v -60.000000 80.002762 -100.133324
v -20.000000 80.865723 -97.777939
v 20.000000 80.002762 -101.333237
v 60.000000 80.002762 -95.756546
v 100.000000 80.002762 -96.605766
v -107.890930 40.002762 -101.111031
v -64.734558 40.002762 -100.222206
v -21.439697 40.002762 -97.777939
v 21.439697 40.002762 -101.333237
v 64.319092 40.002762 -95.756546
v 107.198486 40.002762 -95.756546
v -104.428711 0.002762 -101.111031
v -62.657227 0.002762 -100.000000
v -20.885742 0.002762 -97.777939
v 20.885742 0.002762 -100.000000
v 62.657227 0.002762 -98.091904
v 104.428711 0.002762 -96.605766
v -104.428711 0.002762 -60.666618
v -62.657227 0.002762 -60.000000
v -20.885742 0.002762 -58.666763
v 20.885742 0.002762 -60.799942
v 62.657227 0.002762 -58.855145
v 104.428711 0.002762 -57.963463
v -101.771484 0.002762 -20.222206
v -61.062893 0.002762 -20.000000
v -20.354298 0.002762 -19.555588
v 20.354298 0.002762 -20.177765
v 61.062893 0.002762 -19.863943
v 101.771484 0.002762 -19.321154
v -100.000000 0.002762 20.222206
v -60.000000 0.002762 20.000000
v -20.000000 0.002762 19.555588
v 20.000000 0.002762 20.000000
v 60.000000 0.002762 20.355064
v 100.000000 0.002762 19.321154
v -100.000000 0.002762 60.666618
v -60.000000 0.002762 60.000000
v -20.000000 0.002762 58.666763
v 20.000000 0.002762 60.799942
v 60.000000 0.002762 58.855145
v 100.000000 0.002762 57.963463
v 107.198486 40.002762 -57.453930
v 107.198486 40.002762 -19.151310
v 106.090576 40.002762 19.264540
v 104.428711 40.002762 57.963463
v 101.060921 80.002762 -57.774746
v 102.424286 80.002762 -19.193771
v 103.156372 80.002762 19.108849
v 103.156372 80.002762 57.326546
v 93.049995 120.002762 -57.963463
v 93.789124 120.002762 -19.321154
v 93.957535 120.002762 19.321154
v 93.957535 120.002762 57.963463
v 95.705658 158.033203 -57.326546
v 95.705658 158.033203 -19.108849
v 99.188072 160.163132 19.108849
v 99.188072 160.163132 57.326546
v -107.198486 40.002762 -60.666618
v -107.198486 40.002762 -20.222206
v -107.198486 40.002762 20.222206
v -104.428711 40.002762 60.666618
v -100.000000 80.002762 -60.666618
v -101.326157 80.002762 -20.222206
v -103.156372 80.002762 20.222206
v -103.156372 80.002762 60.666618
v -95.158218 120.002762 -60.666618
v -95.158218 120.002762 -20.222206
v -95.579239 120.002762 20.222206
v -95.579239 120.002762 60.666618
v -99.342232 160.464722 -60.666618
v -99.342232 160.464722 -20.222206
v -99.342232 160.464722 20.222206
v -99.342232 160.464722 60.666618
vt 0.375000 0.000000
vt 0.425000 0.000000
vt 0.475000 0.000000
vt 0.525000 0.000000
vt 0.575000 0.000000
vt 0.625000 0.000000
vt 0.375000 0.050000
vt 0.425000 0.050000
vt 0.475000 0.050000
vt 0.525000 0.050000
vt 0.575000 0.050000
vt 0.625000 0.050000
vt 0.375000 0.100000
vt 0.425000 0.100000
vt 0.475000 0.100000
vt 0.525000 0.100000
vt 0.575000 0.100000
vt 0.625000 0.100000
vt 0.375000 0.150000
vt 0.425000 0.150000
vt 0.475000 0.150000
vt 0.525000 0.150000
vt 0.575000 0.150000
vt 0.625000 0.150000
vt 0.375000 0.200000
vt 0.425000 0.200000
vt 0.475000 0.200000
vt 0.525000 0.200000
vt 0.575000 0.200000
vt 0.625000 0.200000
vt 0.375000 0.250000
vt 0.425000 0.250000
vt 0.475000 0.250000
vt 0.525000 0.250000
vt 0.575000 0.250000
vt 0.625000 0.250000
vt 0.375000 0.300000
vt 0.425000 0.300000
vt 0.475000 0.300000
vt 0.525000 0.300000
vt 0.575000 0.300000
vt 0.625000 0.300000
vt 0.375000 0.350000
vt 0.425000 0.350000
vt 0.475000 0.350000
vt 0.525000 0.350000
vt 0.575000 0.350000
vt 0.625000 0.350000
vt 0.375000 0.400000
vt 0.425000 0.400000
vt 0.475000 0.400000
vt 0.525000 0.400000
vt 0.575000 0.400000
vt 0.625000 0.400000
vt 0.375000 0.450000
vt 0.425000 0.450000
vt 0.475000 0.450000
vt 0.525000 0.450000
vt 0.575000 0.450000
vt 0.625000 0.450000
vt 0.375000 0.500000
vt 0.425000 0.500000
vt 0.475000 0.500000
vt 0.525000 0.500000
vt 0.575000 0.500000
vt 0.625000 0.500000
vt 0.375000 0.550000
vt 0.425000 0.550000
vt 0.475000 0.550000
vt 0.525000 0.550000
vt 0.575000 0.550000
vt 0.625000 0.550000
vt 0.375000 0.600000
vt 0.425000 0.600000
vt 0.475000 0.600000
vt 0.525000 0.600000
vt 0.575000 0.600000
vt 0.625000 0.600000
vt 0.375000 0.650000
vt 0.425000 0.650000
vt 0.475000 0.650000
vt 0.525000 0.650000
vt 0.575000 0.650000
vt 0.625000 0.650000
vt 0.375000 0.700000
vt 0.425000 0.700000
vt 0.475000 0.700000
vt 0.525000 0.700000
vt 0.575000 0.700000
vt 0.625000 0.700000
vt 0.375000 0.750000
vt 0.425000 0.750000
vt 0.475000 0.750000
vt 0.525000 0.750000
vt 0.575000 0.750000
vt 0.625000 0.750000
vt 0.375000 0.800000
vt 0.425000 0.800000
vt 0.475000 0.800000
vt 0.525000 0.800000
vt 0.575000 0.800000
vt 0.625000 0.800000
vt 0.375000 0.850000
vt 0.425000 0.850000
vt 0.475000 0.850000
vt 0.525000 0.850000
vt 0.575000 0.850000
vt 0.625000 0.850000
vt 0.375000 0.900000
vt 0.425000 0.900000
vt 0.475000 0.900000
vt 0.525000 0.900000
vt 0.575000 0.900000
vt 0.625000 0.900000
vt 0.375000 0.950000
vt 0.425000 0.950000
vt 0.475000 0.950000
vt 0.525000 0.950000
vt 0.575000 0.950000
vt 0.625000 0.950000
vt 0.375000 1.000000
vt 0.425000 1.000000
vt 0.475000 1.000000
vt 0.525000 1.000000
vt 0.575000 1.000000
vt 0.625000 1.000000
vt 0.875000 0.000000
vt 0.825000 0.000000
vt 0.775000 0.000000
vt 0.725000 0.000000
vt 0.675000 0.000000
vt 0.875000 0.050000
vt 0.825000 0.050000
vt 0.775000 0.050000
vt 0.725000 0.050000
vt 0.675000 0.050000
vt 0.875000 0.100000
vt 0.825000 0.100000
vt 0.775000 0.100000
vt 0.725000 0.100000
vt 0.675000 0.100000
vt 0.875000 0.150000
vt 0.825000 0.150000
vt 0.775000 0.150000
vt 0.725000 0.150000
vt 0.675000 0.150000
vt 0.875000 0.200000
vt 0.825000 0.200000
vt 0.775000 0.200000
vt 0.725000 0.200000
vt 0.675000 0.200000
vt 0.875000 0.250000
vt 0.825000 0.250000
vt 0.775000 0.250000
vt 0.725000 0.250000
vt 0.675000 0.250000
vt 0.125000 0.000000
vt 0.175000 0.000000
vt 0.225000 0.000000
vt 0.275000 0.000000
vt 0.325000 0.000000
vt 0.125000 0.050000
vt 0.175000 0.050000
vt 0.225000 0.050000
vt 0.275000 0.050000
vt 0.325000 0.050000
vt 0.125000 0.100000
vt 0.175000 0.100000
vt 0.225000 0.100000
vt 0.275000 0.100000
vt 0.325000 0.100000
vt 0.125000 0.150000
vt 0.175000 0.150000
vt 0.225000 0.150000
vt 0.275000 0.150000
vt 0.325000 0.150000
vt 0.125000 0.200000
vt 0.175000 0.200000
vt 0.225000 0.200000
vt 0.275000 0.200000
vt 0.325000 0.200000
vt 0.125000 0.250000
vt 0.175000 0.250000
vt 0.225000 0.250000
vt 0.275000 0.250000
vt 0.325000 0.250000
vn 0.027164 0.002406 0.999628
vn 0.041299 0.002405 0.999144
vn 0.040044 0.000295 0.999198
vn 0.026398 0.000250 0.999651
vn -0.017295 0.001186 0.999850
vn -0.015273 0.000149 0.999883
vn 0.009071 0.012035 0.999887
vn 0.018342 0.006573 0.999810
vn 0.059897 0.026312 0.997858
vn 0.058956 0.016887 0.998118
vn 0.007786 0.028490 0.999564
vn -0.000201 0.020524 0.999789
vn 0.040517 -0.002427 0.999176
vn 0.026178 -0.002314 0.999655
vn -0.015387 -0.001267 0.999881
vn 0.026085 0.003826 0.999652
vn 0.061789 0.002751 0.998086
vn -0.007823 0.000653 0.999969
vn 0.042910 -0.002047 0.999077
vn 0.026185 -0.002005 0.999655
vn -0.018211 -0.000981 0.999834
vn 0.024643 0.001394 0.999695
vn 0.072879 0.001546 0.997340
vn -0.008307 -0.000869 0.999965
vn 0.041663 -0.000356 0.999132
vn 0.023795 -0.000446 0.999717
vn -0.015504 -0.000073 0.999880
vn 0.027711 -0.002254 0.999614
vn 0.067280 0.001908 0.997732
vn -0.000863 0.006479 0.999979
vn 0.040254 0.000109 0.999189
vn 0.022533 -0.000093 0.999746
vn -0.018072 0.000166 0.999837
vn 0.030497 -0.000246 0.999535
vn 0.070814 -0.000244 0.997490
vn 0.005341 -0.000030 0.999986
vn 0.247226 0.968958 0.000000
vn 0.115521 0.993305 0.000000
vn 0.111765 0.993735 0.000000
vn 0.247226 0.968958 0.000000
vn -0.070857 0.997487 0.000000
vn -0.070528 0.997510 0.000000
vn -0.049188 0.998790 0.000000
vn -0.048064 0.998844 0.000000
vn -0.033542 0.999437 0.000000
vn -0.035870 0.999356 0.000000
vn -0.088888 0.996042 0.000000
vn -0.088888 0.996042 0.000000
vn 0.111665 0.993746 0.000024
vn 0.247278 0.968945 -0.000054
vn -0.070465 0.997514 0.000052
vn -0.048064 0.998844 0.000000
vn -0.029287 0.999547 -0.006886
vn -0.075645 0.997038 -0.013903
vn 0.111714 0.993740 0.000062
vn 0.247462 0.968898 -0.000135
vn -0.070250 0.997529 0.000129
vn -0.048064 0.998844 0.000000
vn -0.016102 0.999847 -0.006884
vn -0.049098 0.998697 -0.013926
vn 0.111912 0.993718 0.000034
vn 0.247672 0.968844 -0.000080
vn -0.070002 0.997547 0.000079
vn -0.048064 0.998844 0.000000
vn -0.009520 0.999955 0.000000
vn -0.035793 0.999359 0.000000
vn 0.115503 0.993307 0.000000
vn 0.247750 0.968824 0.000000
vn -0.070241 0.997530 0.000000
vn -0.049188 0.998790 0.000000
vn -0.008370 0.999965 0.000000
vn -0.035793 0.999359 0.000000
vn 0.023360 0.001611 -0.999726
vn 0.040612 0.002160 -0.999173
vn 0.043236 -0.000294 -0.999065
vn 0.024396 -0.000152 -0.999702
vn -0.017067 0.001375 -0.999853
vn -0.016536 0.000114 -0.999863
vn 0.032381 -0.002905 -0.999471
vn 0.019654 0.004075 -0.999799
vn 0.070919 -0.002842 -0.997478
vn 0.071625 0.014502 -0.997326
vn 0.005438 -0.000415 -0.999985
vn 0.012819 0.018467 -0.999747
vn 0.043163 -0.001841 -0.999066
vn 0.026307 -0.001740 -0.999652
vn -0.017898 -0.000973 -0.999839
vn 0.011496 0.001191 -0.999933
vn 0.071124 0.004138 -0.997459
vn 0.014663 0.004987 -0.999880
vn 0.041615 -0.002031 -0.999132
vn 0.024293 -0.001786 -0.999703
vn -0.015630 -0.001128 -0.999877
vn 0.017496 -0.001640 -0.999846
vn 0.061672 -0.011314 -0.998032
vn -0.002490 -0.018613 -0.999824
vn 0.038734 -0.001941 -0.999248
vn 0.023017 -0.001758 -0.999734
vn -0.009142 -0.005230 -0.999945
vn 0.018465 0.000844 -0.999829
vn 0.054489 0.011569 -0.998447
vn 0.004324 0.014597 -0.999884
vn 0.039702 -0.001056 -0.999211
vn 0.023541 -0.001147 -0.999722
vn -0.007088 -0.008869 -0.999936
vn 0.009390 -0.003412 -0.999950
vn 0.053881 0.024013 -0.998259
vn 0.017540 0.038799 -0.999093
vn 0.000000 -1.000000 0.000000
vn 0.000000 -1.000000 0.000000
vn 0.000000 -1.000000 0.000000
vn 0.000000 -1.000000 0.000000
vn 0.000000 -1.000000 0.000000
vn 0.000000 -1.000000 0.000000
vn 0.000000 -1.000000 0.000000
vn 0.000000 -1.000000 -0.000000
vn 0.000000 -1.000000 0.000000
vn 0.000000 -1.000000 -0.000000
vn 0.000000 -1.000000 0.000000
vn 0.000000 -1.000000 -0.000000
vn 0.000000 -1.000000 0.000000
vn 0.000000 -1.000000 0.000000
vn 0.000000 -1.000000 0.000000
vn 0.000000 -1.000000 0.000000
vn 0.000000 -1.000000 -0.000000
vn 0.000000 -1.000000 -0.000000
vn 0.000000 -1.000000 -0.000000
vn 0.000000 -1.000000 0.000000
vn 0.000000 -1.000000 -0.000000
vn 0.000000 -1.000000 0.000000
vn 0.000000 -1.000000 0.000000
vn 0.000000 -1.000000 0.000000
vn 0.000000 -1.000000 0.000000
vn 0.000000 -1.000000 0.000000
vn 0.000000 -1.000000 0.000000
vn 0.000000 -1.000000 0.000000
vn 0.000000 -1.000000 0.000000
vn 0.000000 -1.000000 0.000000
vn 0.000000 -1.000000 0.000000
vn 0.000000 -1.000000 0.000000
vn 0.000000 -1.000000 0.000000
vn 0.000000 -1.000000 0.000000
vn 0.000000 -1.000000 0.000000
vn 0.000000 -1.000000 0.000000
vn 0.996186 -0.085561 0.017088
vn 0.997611 -0.069079 0.000000
vn 0.998790 0.048702 -0.006877
vn 0.999467 0.032642 0.000821
vn 0.991835 -0.122441 0.035661
vn 0.999884 -0.003678 0.014784
vn 0.990230 -0.136373 0.029101
vn 0.999265 -0.031836 0.021361
vn 0.992691 -0.120215 0.010669
vn 0.999154 -0.039691 0.010724
vn 0.993927 -0.110045 0.000000
vn 0.999191 -0.040225 0.000000
vn 0.982246 0.185790 -0.025969
vn 0.983788 0.177724 -0.023984
vn 0.986420 0.163744 -0.012778
vn 0.988856 0.148827 0.003649
vn 0.990841 0.134927 0.005409
vn 0.991545 0.129763 0.000000
vn 0.997453 0.063631 -0.032230
vn 0.997224 0.069967 -0.025471
vn 0.997095 0.072500 -0.023338
vn 0.998197 0.058396 -0.013908
vn 0.998777 0.049444 0.000000
vn 0.998776 0.049464 0.000000
vn 0.995377 -0.095249 -0.012330
vn 0.996188 -0.086829 -0.008397
vn 0.996861 -0.075423 -0.024066
vn 0.997320 -0.069957 -0.021409
vn 0.997601 -0.069225 0.000000
vn 0.997566 -0.069723 0.000000
vn 0.995376 -0.096051 0.000000
vn 0.995376 -0.096051 0.000000
vn 0.997035 -0.074002 -0.021110
vn 0.999330 -0.030390 -0.020424
vn 0.999960 -0.008907 0.000000
vn 0.999960 -0.008907 0.000000
vn -0.996943 -0.077662 0.008534
vn -0.995745 -0.089814 0.020635
vn -0.999043 0.042917 0.008386
vn -0.998439 0.055195 0.008547
vn -0.991257 -0.129130 0.027111
vn -0.999970 0.006759 0.003932
vn -0.988327 -0.149795 0.027758
vn -0.999464 -0.028062 0.016878
vn -0.991761 -0.126974 0.016980
vn -0.999072 -0.039508 0.017131
vn -0.993927 -0.110045 0.000000
vn -0.999223 -0.039424 0.000000
vn -0.988531 0.150897 -0.005985
vn -0.988216 0.153007 0.004230
vn -0.988834 0.147592 -0.020585
vn -0.990625 0.136553 -0.003998
vn -0.992926 0.118430 0.008500
vn -0.993937 0.109948 0.000000
vn -0.999620 0.023154 -0.014942
vn -0.999317 0.029889 -0.021729
vn -0.999581 0.026197 -0.012294
vn -0.999097 0.041697 -0.008225
vn -0.998878 0.047350 0.000000
vn -0.998878 0.047350 0.000000
vn -0.998811 -0.043735 -0.021560
vn -0.998109 -0.043762 -0.043159
vn -0.999096 -0.042487 -0.001280
vn -0.999202 -0.039933 -0.001280
vn -0.999253 -0.038655 0.000000
vn -0.999253 -0.038655 0.000000
vn -0.999742 -0.006964 -0.021615
vn -0.998678 -0.027887 -0.043183
vn -0.999902 0.013991 0.000000
vn -0.999902 0.013991 0.000000
vn -0.999902 0.013991 0.000000
vn -0.999902 0.013991 0.000000
s 1
g pCube4
usemtl initialShadingGroup
f 1/1/1 2/2/2 8/8/3 7/7/4
f 2/2/2 3/3/5 9/9/6 8/8/3
f 3/3/5 4/4/7 10/10/8 9/9/6
f 4/4/7 5/5/9 11/11/10 10/10/8
f 5/5/9 6/6/11 12/12/12 11/11/10
f 7/7/4 8/8/3 14/14/13 13/13/14
f 8/8/3 9/9/6 15/15/15 14/14/13
f 9/9/6 10/10/8 16/16/16 15/15/15
f 10/10/8 11/11/10 17/17/17 16/16/16
f 11/11/10 12/12/12 18/18/18 17/17/17
f 13/13/14 14/14/13 20/20/19 19/19/20
f 14/14/13 15/15/15 21/21/21 20/20/19
f 15/15/15 16/16/16 22/22/22 21/21/21
f 16/16/16 17/17/17 23/23/23 22/22/22
f 17/17/17 18/18/18 24/24/24 23/23/23
f 19/19/20 20/20/19 26/26/25 25/25/26
f 20/20/19 21/21/21 27/27/27 26/26/25
f 21/21/21 22/22/22 28/28/28 27/27/27
f 22/22/22 23/23/23 29/29/29 28/28/28
f 23/23/23 24/24/24 30/30/30 29/29/29
f 25/25/26 26/26/25 32/32/31 31/31/32
f 26/26/25 27/27/27 33/33/33 32/32/31
f 27/27/27 28/28/28 34/34/34 33/33/33
f 28/28/28 29/29/29 35/35/35 34/34/34
f 29/29/29 30/30/30 36/36/36 35/35/35
s 2
f 31/31/37 32/32/38 38/38/39 37/37/40
f 32/32/38 33/33/41 39/39/42 38/38/39
f 33/33/41 34/34/43 40/40/44 39/39/42
f 34/34/43 35/35/45 41/41/46 40/40/44
f 35/35/45 36/36/47 42/42/48 41/41/46
f 37/37/40 38/38/39 44/44/49 43/43/50
f 38/38/39 39/39/42 45/45/51 44/44/49
f 39/39/42 40/40/44 46/46/52 45/45/51
f 40/40/44 41/41/46 47/47/53 46/46/52
f 41/41/46 42/42/48 48/48/54 47/47/53
f 43/43/50 44/44/49 50/50/55 49/49/56
f 44/44/49 45/45/51 51/51/57 50/50/55
f 45/45/51 46/46/52 52/52/58 51/51/57
f 46/46/52 47/47/53 53/53/59 52/52/58
f 47/47/53 48/48/54 54/54/60 53/53/59
f 49/49/56 50/50/55 56/56/61 55/55/62
f 50/50/55 51/51/57 57/57/63 56/56/61
f 51/51/57 52/52/58 58/58/64 57/57/63
f 52/52/58 53/53/59 59/59/65 58/58/64
f 53/53/59 54/54/60 60/60/66 59/59/65
f 55/55/62 56/56/61 62/62/67 61/61/68
f 56/56/61 57/57/63 63/63/69 62/62/67
f 57/57/63 58/58/64 64/64/70 63/63/69
f 58/58/64 59/59/65 65/65/71 64/64/70
f 59/59/65 60/60/66 66/66/72 65/65/71
s 3
f 61/61/73 62/62/74 68/68/75 67/67/76
f 62/62/74 63/63/77 69/69/78 68/68/75
f 63/63/77 64/64/79 70/70/80 69/69/78
f 64/64/79 65/65/81 71/71/82 70/70/80
f 65/65/81 66/66/83 72/72/84 71/71/82
f 67/67/76 68/68/75 74/74/85 73/73/86
f 68/68/75 69/69/78 75/75/87 74/74/85
f 69/69/78 70/70/80 76/76/88 75/75/87
f 70/70/80 71/71/82 77/77/89 76/76/88
f 71/71/82 72/72/84 78/78/90 77/77/89
f 73/73/86 74/74/85 80/80/91 79/79/92
f 74/74/85 75/75/87 81/81/93 80/80/91
f 75/75/87 76/76/88 82/82/94 81/81/93
f 76/76/88 77/77/89 83/83/95 82/82/94
f 77/77/89 78/78/90 84/84/96 83/83/95
f 79/79/92 80/80/91 86/86/97 85/85/98
f 80/80/91 81/81/93 87/87/99 86/86/97
f 81/81/93 82/82/94 88/88/100 87/87/99
f 82/82/94 83/83/95 89/89/101 88/88/100
f 83/83/95 84/84/96 90/90/102 89/89/101
f 85/85/98 86/86/97 92/92/103 91/91/104
f 86/86/97 87/87/99 93/93/105 92/92/103
f 87/87/99 88/88/100 94/94/106 93/93/105
f 88/88/100 89/89/101 95/95/107 94/94/106
f 89/89/101 90/90/102 96/96/108 95/95/107
s 4
f 91/91/109 92/92/110 98/98/111 97/97/112
f 92/92/110 93/93/113 99/99/114 98/98/111
f 93/93/113 94/94/115 100/100/116 99/99/114
f 94/94/115 95/95/117 101/101/118 100/100/116
f 95/95/117 96/96/119 102/102/120 101/101/118
f 97/97/112 98/98/111 104/104/121 103/103/122
f 98/98/111 99/99/114 105/105/123 104/104/121
f 99/99/114 100/100/116 106/106/124 105/105/123
f 100/100/116 101/101/118 107/107/125 106/106/124
f 101/101/118 102/102/120 108/108/126 107/107/125
f 103/103/122 104/104/121 110/110/127 109/109/128
f 104/104/121 105/105/123 111/111/129 110/110/127
f 105/105/123 106/106/124 112/112/130 111/111/129
f 106/106/124 107/107/125 113/113/131 112/112/130
f 107/107/125 108/108/126 114/114/132 113/113/131
f 109/109/128 110/110/127 116/116/133 115/115/134
f 110/110/127 111/111/129 117/117/135 116/116/133
f 111/111/129 112/112/130 118/118/136 117/117/135
f 112/112/130 113/113/131 119/119/137 118/118/136
f 113/113/131 114/114/132 120/120/138 119/119/137
f 115/115/134 116/116/133 2/122/139 1/121/140
f 116/116/133 117/117/135 3/123/141 2/122/139
f 117/117/135 118/118/136 4/124/142 3/123/141
f 118/118/136 119/119/137 5/125/143 4/124/142
f 119/119/137 120/120/138 6/126/144 5/125/143
s 5
f 102/128/145 96/127/146 90/132/147 121/133/148
f 108/129/149 102/128/145 121/133/148 122/134/150
f 114/130/151 108/129/149 122/134/150 123/135/152
f 120/131/153 114/130/151 123/135/152 124/136/154
f 6/6/155 120/131/153 124/136/154 12/12/156
f 121/133/148 90/132/147 84/137/157 125/138/158
f 122/134/150 121/133/148 125/138/158 126/139/159
f 123/135/152 122/134/150 126/139/159 127/140/160
f 124/136/154 123/135/152 127/140/160 128/141/161
f 12/12/156 124/136/154 128/141/161 18/18/162
f 125/138/158 84/137/157 78/142/163 129/143/164
f 126/139/159 125/138/158 129/143/164 130/144/165
f 127/140/160 126/139/159 130/144/165 131/145/166
f 128/141/161 127/140/160 131/145/166 132/146/167
f 18/18/162 128/141/161 132/146/167 24/24/168
f 129/143/164 78/142/163 72/147/169 133/148/170
f 130/144/165 129/143/164 133/148/170 134/149/171
f 131/145/166 130/144/165 134/149/171 135/150/172
f 132/146/167 131/145/166 135/150/172 136/151/173
f 24/24/168 132/146/167 136/151/173 30/30/174
f 133/148/170 72/147/169 66/152/175 60/153/176
f 134/149/171 133/148/170 60/153/176 54/154/177
f 135/150/172 134/149/171 54/154/177 48/155/178
f 136/151/173 135/150/172 48/155/178 42/156/179
f 30/30/174 136/151/173 42/156/179 36/36/180
s 6
f 91/157/181 97/158/182 137/163/183 85/162/184
f 97/158/182 103/159/185 138/164/186 137/163/183
f 103/159/185 109/160/187 139/165/188 138/164/186
f 109/160/187 115/161/189 140/166/190 139/165/188
f 115/161/189 1/1/191 7/7/192 140/166/190
f 85/162/184 137/163/183 141/168/193 79/167/194
f 137/163/183 138/164/186 142/169/195 141/168/193
f 138/164/186 139/165/188 143/170/196 142/169/195
f 139/165/188 140/166/190 144/171/197 143/170/196
f 140/166/190 7/7/192 13/13/198 144/171/197
f 79/167/194 141/168/193 145/173/199 73/172/200
f 141/168/193 142/169/195 146/174/201 145/173/199
f 142/169/195 143/170/196 147/175/202 146/174/201
f 143/170/196 144/171/197 148/176/203 147/175/202
f 144/171/197 13/13/198 19/19/204 148/176/203
f 73/172/200 145/173/199 149/178/205 67/177/206
f 145/173/199 146/174/201 150/179/207 149/178/205
f 146/174/201 147/175/202 151/180/208 150/179/207
f 147/175/202 148/176/203 152/181/209 151/180/208
f 148/176/203 19/19/204 25/25/210 152/181/209
f 67/177/206 149/178/205 55/183/211 61/182/212
f 149/178/205 150/179/207 49/184/213 55/183/211
f 150/179/207 151/180/208 43/185/214 49/184/213
f 151/180/208 152/181/209 37/186/215 43/185/214
f 152/181/209 25/25/210 31/31/216 37/186/215
